<svg width="38.81" height="41.14" viewBox="0 0 38.81 41.14" fill="none" xmlns="http://www.w3.org/2000/svg">
<g id="Explorer" clip-path="url(#clip0_856_4971)">
<path id="Vector" d="M38.6242 39.0662L25.5571 25.1219L23.5286 27.0228L36.5957 40.9671L38.6242 39.0662Z" fill="#E8E8E8"/>
<path id="Vector_2" d="M24.6695 26.4226L26.42 28.2906C26.6115 28.4949 26.6014 28.8059 26.3971 28.9974L25.8571 29.5034L23.4228 26.9057L23.9628 26.3997C24.1671 26.2082 24.4781 26.2183 24.6695 26.4226Z" fill="#D1D1D1"/>
<path id="Vector_3" d="M38.5465 38.3097L28.1667 27.233C27.7891 26.83 27.1562 26.8095 26.7532 27.1871L25.5274 28.3359C25.1244 28.7135 25.1038 29.3464 25.4815 29.7494L35.8613 40.826C36.2389 41.229 36.8718 41.2495 37.2748 40.8719L38.5006 39.7231C38.9036 39.3455 38.9242 38.7127 38.5465 38.3097Z" fill="#33A5E5"/>
<g id="Group">
<path id="Vector_4" d="M28.2 12.96L2.60998 12.46L0.97998 18L28.59 18.9L28.2 12.96Z" fill="#E5F4FC"/>
<path id="Vector_5" d="M27.1497 21.37L1.65967 20.53L2.36967 22.96L27.4797 23.79L27.1497 21.37Z" fill="#E5F4FC"/>
<path id="Vector_6" d="M26.1499 4.78002C20.4399 -1.30998 10.8699 -1.61998 4.7799 4.09002C-1.3101 9.80002 -1.6201 19.37 4.0899 25.46C9.7999 31.55 19.3699 31.86 25.4599 26.15C31.5499 20.44 31.8599 10.87 26.1499 4.78002ZM5.7899 23.86C0.969895 18.71 1.2299 10.62 6.3799 5.79002C11.5299 0.960018 19.6199 1.22002 24.4499 6.38002C29.2799 11.54 29.0199 19.62 23.8599 24.45C18.6999 29.28 10.6199 29.02 5.7899 23.86Z" fill="#33A5E5"/>
</g>
<path id="Vector_7" d="M26.36 28.2243L37.4236 40.0306C37.615 40.2349 37.6049 40.5459 37.4006 40.7373L37.262 40.8672C36.8607 41.2433 36.2246 41.2227 35.8485 40.8213L25.4687 29.7447C25.0926 29.3434 25.1133 28.7073 25.5146 28.3312L25.6532 28.2013C25.8575 28.0099 26.1685 28.02 26.36 28.2243Z" fill="#008EDE"/>
</g>
<defs>
<clipPath id="clip0_856_4971">
<rect width="38.81" height="41.14" fill="white"/>
</clipPath>
</defs>
</svg>
